<svg id="visual" viewBox="0 0 675 900" width="675" height="900" xmlns="http://www.w3.org/2000/svg" xmlns:xlink="http://www.w3.org/1999/xlink" version="1.1"><rect x="0" y="0" width="675" height="900" fill="#001220"></rect><path d="M0 367L16 355.7C32 344.3 64 321.7 96.2 308.2C128.3 294.7 160.7 290.3 192.8 292.2C225 294 257 302 289.2 315.8C321.3 329.7 353.7 349.3 385.8 352.5C418 355.7 450 342.3 482.2 340C514.3 337.7 546.7 346.3 578.8 333.8C611 321.3 643 287.7 659 270.8L675 254L675 0L659 0C643 0 611 0 578.8 0C546.7 0 514.3 0 482.2 0C450 0 418 0 385.8 0C353.7 0 321.3 0 289.2 0C257 0 225 0 192.8 0C160.7 0 128.3 0 96.2 0C64 0 32 0 16 0L0 0Z" fill="#fa7268"></path><path d="M0 181L16 183.7C32 186.3 64 191.7 96.2 210.8C128.3 230 160.7 263 192.8 281.3C225 299.7 257 303.3 289.2 294.7C321.3 286 353.7 265 385.8 252.2C418 239.3 450 234.7 482.2 230.7C514.3 226.7 546.7 223.3 578.8 221.2C611 219 643 218 659 217.5L675 217L675 0L659 0C643 0 611 0 578.8 0C546.7 0 514.3 0 482.2 0C450 0 418 0 385.8 0C353.7 0 321.3 0 289.2 0C257 0 225 0 192.8 0C160.7 0 128.3 0 96.2 0C64 0 32 0 16 0L0 0Z" fill="#ef5f67"></path><path d="M0 221L16 214.5C32 208 64 195 96.2 197.5C128.3 200 160.7 218 192.8 224.8C225 231.7 257 227.3 289.2 218.7C321.3 210 353.7 197 385.8 192.7C418 188.3 450 192.7 482.2 196C514.3 199.3 546.7 201.7 578.8 193.3C611 185 643 166 659 156.5L675 147L675 0L659 0C643 0 611 0 578.8 0C546.7 0 514.3 0 482.2 0C450 0 418 0 385.8 0C353.7 0 321.3 0 289.2 0C257 0 225 0 192.8 0C160.7 0 128.3 0 96.2 0C64 0 32 0 16 0L0 0Z" fill="#e34c67"></path><path d="M0 123L16 119.8C32 116.7 64 110.3 96.2 112.7C128.3 115 160.7 126 192.8 130.3C225 134.7 257 132.3 289.2 131C321.3 129.7 353.7 129.3 385.8 124C418 118.7 450 108.3 482.2 115.8C514.3 123.3 546.7 148.7 578.8 152.3C611 156 643 138 659 129L675 120L675 0L659 0C643 0 611 0 578.8 0C546.7 0 514.3 0 482.2 0C450 0 418 0 385.8 0C353.7 0 321.3 0 289.2 0C257 0 225 0 192.8 0C160.7 0 128.3 0 96.2 0C64 0 32 0 16 0L0 0Z" fill="#d53867"></path><path d="M0 51L16 55.3C32 59.7 64 68.3 96.2 70.3C128.3 72.3 160.7 67.7 192.8 73.3C225 79 257 95 289.2 96.5C321.3 98 353.7 85 385.8 78.8C418 72.7 450 73.3 482.2 78.2C514.3 83 546.7 92 578.8 92.8C611 93.7 643 86.3 659 82.7L675 79L675 0L659 0C643 0 611 0 578.8 0C546.7 0 514.3 0 482.2 0C450 0 418 0 385.8 0C353.7 0 321.3 0 289.2 0C257 0 225 0 192.8 0C160.7 0 128.3 0 96.2 0C64 0 32 0 16 0L0 0Z" fill="#c62368"></path></svg>