<?xml version="1.0" standalone="no"?><svg xmlns="http://www.w3.org/2000/svg" viewBox="0 0 1440 320"><path fill="#C21277" fill-opacity="1" d="M0,160L26.7,144C53.3,128,107,96,160,96C213.3,96,267,128,320,165.3C373.3,203,427,245,480,240C533.3,235,587,181,640,165.3C693.3,149,747,171,800,170.7C853.3,171,907,149,960,138.7C1013.3,128,1067,128,1120,122.7C1173.3,117,1227,107,1280,106.7C1333.3,107,1387,117,1413,122.7L1440,128L1440,0L1413.3,0C1386.7,0,1333,0,1280,0C1226.7,0,1173,0,1120,0C1066.7,0,1013,0,960,0C906.7,0,853,0,800,0C746.7,0,693,0,640,0C586.7,0,533,0,480,0C426.7,0,373,0,320,0C266.7,0,213,0,160,0C106.7,0,53,0,27,0L0,0Z"></path></svg>